<?xml version="1.0" encoding="UTF-8" standalone="no"?>
<!DOCTYPE svg PUBLIC "-//W3C//DTD SVG 1.1//EN"
 "http://www.w3.org/Graphics/SVG/1.1/DTD/svg11.dtd">
<!-- Generated by graphviz version 2.47.2 (0)
 -->
<!-- Pages: 1 -->
<svg width="350pt" height="116pt"
 viewBox="0.00 0.00 350.00 116.00" xmlns="http://www.w3.org/2000/svg" xmlns:xlink="http://www.w3.org/1999/xlink">
<g id="graph0" class="graph" transform="scale(1 1) rotate(0) translate(4 112)">
<polygon fill="white" stroke="transparent" points="-4,4 -4,-112 346,-112 346,4 -4,4"/>
<!-- 01 -->
<g id="node1" class="node">
<title>01</title>
<g id="a_node1"><a xlink:href="01.md" xlink:title="01">
<ellipse fill="none" stroke="black" cx="171" cy="-90" rx="27" ry="18"/>
<text text-anchor="middle" x="171" y="-86.3" font-family="Times,serif" font-size="14.00">01</text>
</a>
</g>
</g>
<!-- 02 -->
<g id="node2" class="node">
<title>02</title>
<ellipse fill="none" stroke="black" cx="27" cy="-18" rx="27" ry="18"/>
<text text-anchor="middle" x="27" y="-14.3" font-family="Times,serif" font-size="14.00">02</text>
</g>
<!-- 01&#45;&gt;02 -->
<g id="edge1" class="edge">
<title>01&#45;&gt;02</title>
<path fill="none" stroke="black" d="M149.75,-78.67C125.4,-66.83 85.28,-47.33 57.57,-33.86"/>
<polygon fill="black" stroke="black" points="58.86,-30.6 48.33,-29.37 55.8,-36.89 58.86,-30.6"/>
</g>
<!-- 03 -->
<g id="node3" class="node">
<title>03</title>
<ellipse fill="none" stroke="black" cx="99" cy="-18" rx="27" ry="18"/>
<text text-anchor="middle" x="99" y="-14.3" font-family="Times,serif" font-size="14.00">03</text>
</g>
<!-- 01&#45;&gt;03 -->
<g id="edge2" class="edge">
<title>01&#45;&gt;03</title>
<path fill="none" stroke="black" d="M156.43,-74.83C146.25,-64.94 132.48,-51.55 120.97,-40.36"/>
<polygon fill="black" stroke="black" points="123.41,-37.85 113.8,-33.38 118.53,-42.87 123.41,-37.85"/>
</g>
<!-- 04 -->
<g id="node4" class="node">
<title>04</title>
<ellipse fill="none" stroke="black" cx="171" cy="-18" rx="27" ry="18"/>
<text text-anchor="middle" x="171" y="-14.3" font-family="Times,serif" font-size="14.00">04</text>
</g>
<!-- 01&#45;&gt;04 -->
<g id="edge3" class="edge">
<title>01&#45;&gt;04</title>
<path fill="none" stroke="black" d="M171,-71.7C171,-63.98 171,-54.71 171,-46.11"/>
<polygon fill="black" stroke="black" points="174.5,-46.1 171,-36.1 167.5,-46.1 174.5,-46.1"/>
</g>
<!-- 05 -->
<g id="node5" class="node">
<title>05</title>
<ellipse fill="none" stroke="black" cx="243" cy="-18" rx="27" ry="18"/>
<text text-anchor="middle" x="243" y="-14.3" font-family="Times,serif" font-size="14.00">05</text>
</g>
<!-- 01&#45;&gt;05 -->
<g id="edge4" class="edge">
<title>01&#45;&gt;05</title>
<path fill="none" stroke="black" d="M185.57,-74.83C195.75,-64.94 209.52,-51.55 221.03,-40.36"/>
<polygon fill="black" stroke="black" points="223.47,-42.87 228.2,-33.38 218.59,-37.85 223.47,-42.87"/>
</g>
<!-- 06 -->
<g id="node6" class="node">
<title>06</title>
<ellipse fill="none" stroke="black" cx="315" cy="-18" rx="27" ry="18"/>
<text text-anchor="middle" x="315" y="-14.3" font-family="Times,serif" font-size="14.00">06</text>
</g>
<!-- 01&#45;&gt;06 -->
<g id="edge5" class="edge">
<title>01&#45;&gt;06</title>
<path fill="none" stroke="black" d="M192.25,-78.67C216.6,-66.83 256.72,-47.33 284.43,-33.86"/>
<polygon fill="black" stroke="black" points="286.2,-36.89 293.67,-29.37 283.14,-30.6 286.2,-36.89"/>
</g>
</g>
</svg>
