<svg xmlns="http://www.w3.org/2000/svg" viewBox="0 0 1769 451" width="600" height="153">
	<defs>
		<clipPath clipPathUnits="userSpaceOnUse" id="cp1">
			<path d="M0 -651L1769 -651L1769 1033L0 1033Z" />
		</clipPath>
	</defs>
	<style>
		tspan { white-space:pre }
		.shp0 { fill: #000000 } 
	</style>
	<g id="Page 1" clip-path="url(#cp1)">
		<path id="ln" fill-rule="evenodd" class="shp0" d="M80.43 68.82L144.74 68.82L144.74 208.69C144.74 245.81 158.93 272.8 187.34 289.68C199.66 297.86 216.21 301.94 236.98 301.94L377.85 301.94L377.85 364.24L238.99 364.24C201.61 364.24 171.66 356.4 149.16 340.73C142.86 337.51 133.41 329.81 120.82 317.62C104.61 299.4 93.62 280.98 87.86 262.35C82.9 248.28 80.43 228.19 80.43 202.06L80.43 68.82ZM86.46 202.06C86.46 227.38 88.8 246.81 93.49 260.34C98.98 278.16 109.57 295.91 125.24 313.6C137.3 325.25 146.34 332.56 152.37 335.5C174.08 350.64 202.95 358.21 238.99 358.21L371.82 358.21L371.82 307.97L236.98 307.97C215.14 307.97 197.52 303.62 184.12 294.91C153.84 276.96 138.71 248.22 138.71 208.69L138.71 74.85L86.46 74.85L86.46 202.06ZM669.65 127.51C675.55 135.41 679.77 142.18 682.31 147.8C686.2 154.5 689.81 163.55 693.17 174.93C697.32 188.6 699.39 207.09 699.39 230.4L699.39 364.24L635.29 364.24L635.29 224.17C635.29 179.42 615.12 149.55 574.8 134.54C565.68 132 557.65 130.66 550.68 130.52C543.71 130.66 535.74 132 526.77 134.54C486.44 149.55 466.28 179.42 466.28 224.17L466.28 364.24L401.97 364.24L401.97 230.4C401.97 207.09 404.04 188.6 408.2 174.93C411.55 163.55 415.16 154.5 419.05 147.8C421.59 142.04 425.88 135.28 431.91 127.51C463.8 88.39 503.39 68.82 550.68 68.82C597.97 68.82 637.63 88.39 669.65 127.51ZM550.68 74.85C505.26 74.85 467.28 93.61 436.74 131.12C430.97 138.63 426.82 145.12 424.28 150.62C420.66 157.05 417.17 165.69 413.83 176.54C409.94 189.67 408 207.63 408 230.4L408 358.21L460.25 358.21L460.25 224.17C460.25 176.74 481.75 144.99 524.76 128.91C534.54 126.1 543.18 124.63 550.68 124.49C558.18 124.63 566.89 126.1 576.81 128.91C619.81 144.99 641.32 176.74 641.32 224.17L641.32 358.21L693.37 358.21L693.37 230.4C693.37 207.63 691.42 189.67 687.54 176.54C684.19 165.69 680.71 157.05 677.09 150.62C674.54 145.26 670.46 138.76 664.83 131.12C634.15 93.61 596.1 74.85 550.68 74.85Z" />
		<path id="url" class="shp0" d="M869.21 361.23C822.85 361.23 784.07 342.07 752.85 303.75C746.95 296.11 742.73 289.48 740.19 283.85C736.44 277.29 732.89 268.45 729.54 257.33C725.52 243.93 723.51 225.71 723.51 202.67L723.51 71.84L781.79 71.84L781.79 208.9C781.79 254.99 802.62 285.8 844.29 301.34C853.67 304.02 861.97 305.43 869.21 305.56C876.44 305.43 884.81 304.02 894.33 301.34C935.99 285.8 956.83 254.99 956.83 208.9L956.83 71.84L1014.91 71.84L1014.91 202.67C1014.91 225.71 1012.9 243.93 1008.88 257.33C1005.53 268.45 1001.98 277.29 998.23 283.85C995.68 289.35 991.52 295.98 985.77 303.75C954.42 342.07 915.56 361.23 869.21 361.23ZM1045.05 71.64L1231.14 71.64C1263.97 71.64 1289.69 81.49 1308.31 101.18C1316.62 108.95 1322.38 116.45 1325.59 123.69C1332.83 138.16 1336.45 152.29 1336.45 166.09L1336.45 174.33C1336.45 195.5 1327.27 216.2 1308.92 236.43C1297.12 247.68 1286.41 254.92 1276.76 258.13C1301.14 284.13 1313.34 318.49 1313.34 361.23L1254.86 361.23L1254.86 356.8C1254.86 325.19 1242.06 300.07 1216.47 281.44C1201.87 271.13 1182.78 265.97 1159.2 265.97L1045.05 265.97L1045.05 210.1L1234.76 210.1C1255.52 210.1 1269.59 199.85 1276.96 179.35C1277.77 175.2 1278.3 171.72 1278.57 168.9C1278.57 157.52 1273.81 147.2 1264.3 137.96C1256.13 131.53 1247.42 128.31 1238.18 128.31C1238.18 127.78 1235.36 127.51 1229.74 127.51L1045.05 127.51L1045.05 71.64ZM1366.59 71.84L1424.87 71.84L1424.87 208.69C1424.87 247.01 1439.54 274.88 1468.88 292.3C1481.74 300.74 1498.83 304.96 1520.13 304.96L1657.99 304.96L1657.99 361.23L1522.14 361.23C1485.43 361.23 1456.02 353.52 1433.91 338.11C1427.75 335.03 1418.51 327.53 1406.18 315.61C1390.24 297.66 1379.45 279.57 1373.83 261.35C1369 247.55 1366.59 227.79 1366.59 202.06L1366.59 71.84Z" />
	</g>
</svg>